<svg width="96" height="90" viewBox="0 0 96 90" fill="none" xmlns="http://www.w3.org/2000/svg">
<path d="M20.6247 14.7884L34.1817 5.83209H53.7638C60.9607 8.81752 75.8567 14.7884 77.8651 14.7884C80.3756 14.7884 81.882 28.9299 85.8988 30.8154C89.9157 32.7009 89.9157 42.6 89.4136 44.4855C88.9115 46.371 83.8904 51.0849 83.3883 52.499C82.8862 53.9131 85.3966 63.3403 85.8988 65.2262L85.8988 65.2263C86.401 67.1119 80.3756 72.2971 77.8651 73.2398C75.8567 73.9941 70.6682 77.9537 68.325 79.8392C64.6429 81.4105 56.9773 84.553 55.7723 84.553H35.6879L32.6752 79.8392L20.6247 74.654L13.0929 67.5833V59.0984L8.57409 51.0849C8.40672 46.371 8.1724 36.6605 8.57409 35.5292C8.97578 34.3979 10.7499 28.1442 11.5867 25.1588L20.6247 14.7884Z" fill="white" stroke="#643ADA"/>
<path d="M95.9409 40.4787C95.9542 37.3224 95.0789 34.2187 93.4036 31.4821C91.7283 28.7455 89.3125 26.473 86.4008 24.8948C86.4726 24.1201 86.4726 23.3409 86.4008 22.5662C86.4008 19.0032 84.8931 15.5861 82.2094 13.0666C79.5258 10.5472 75.8859 9.13178 72.0907 9.13178H71.232C70.4377 7.06428 69.1152 5.21132 67.3804 3.73539C65.6457 2.25945 63.5517 1.20563 61.2821 0.666326C59.0126 0.127024 56.6367 0.118714 54.3629 0.642128C52.0891 1.16554 49.9868 2.20469 48.2404 3.66845C46.494 2.20469 44.3917 1.16554 42.118 0.642128C39.8442 0.118714 37.4683 0.127024 35.1987 0.666326C32.9292 1.20563 30.8352 2.25945 29.1004 3.73539C27.3657 5.21132 26.0432 7.06428 25.2488 9.13178H24.3902C20.5949 9.13178 16.9551 10.5472 14.2714 13.0666C11.5877 15.5861 10.0801 19.0032 10.0801 22.5662C10.0083 23.3409 10.0083 24.1201 10.0801 24.8948C7.37289 26.3314 5.08074 28.3674 3.40316 30.8255C1.72558 33.2837 0.71342 36.0896 0.454783 38.9989C0.196145 41.9082 0.698872 44.8328 1.9192 47.518C3.13953 50.2032 5.04047 52.5678 7.45655 54.4057C5.89327 57.1431 5.11501 60.215 5.19815 63.3199C5.2813 66.4249 6.22299 69.4562 7.9308 72.1163C9.63862 74.7765 12.0539 76.974 14.9395 78.4932C17.8251 80.0125 21.0819 80.8012 24.3902 80.782H25.2488C26.0432 82.8495 27.3657 84.7024 29.1004 86.1784C30.8352 87.6543 32.9292 88.7081 35.1987 89.2474C37.4683 89.7867 39.8442 89.795 42.118 89.2716C44.3917 88.7482 46.494 87.7091 48.2404 86.2453C49.9868 87.7091 52.0891 88.7482 54.3629 89.2716C56.6367 89.795 59.0126 89.7867 61.2821 89.2474C63.5517 88.7081 65.6457 87.6543 67.3804 86.1784C69.1152 84.7024 70.4377 82.8495 71.232 80.782H72.0907C75.3788 80.7625 78.6057 79.9455 81.4585 78.4104C84.3113 76.8753 86.6931 74.6741 88.3728 72.0203C90.0526 69.3665 90.9733 66.3502 91.0456 63.264C91.118 60.1778 90.3395 57.1264 88.7858 54.4057C91.0107 52.7334 92.8083 50.6144 94.0465 48.2044C95.2846 45.7943 95.932 43.1545 95.9409 40.4787ZM43.4704 29.5073C42.4315 28.9495 41.3468 28.4703 40.2268 28.0743C39.0249 27.6942 37.7115 27.778 36.5754 28.3071C35.4393 28.8361 34.5736 29.7672 34.1688 30.8955C33.764 32.0238 33.8531 33.2569 34.4167 34.3234C34.9803 35.39 35.9721 36.2027 37.1739 36.5828C39.0101 37.206 40.5984 38.3431 41.7244 39.8406C42.8504 41.3381 43.4598 43.1239 43.4704 44.9569V51.898C42.4315 51.3401 41.3468 50.861 40.2268 50.465C39.0249 50.0849 37.7115 50.1687 36.5754 50.6977C35.4393 51.2268 34.5736 52.1579 34.1688 53.2862C33.764 54.4145 33.8531 55.6476 34.4167 56.7141C34.9803 57.7807 35.9721 58.5934 37.1739 58.9734C39.0101 59.5966 40.5984 60.7338 41.7244 62.2313C42.8504 63.7288 43.4598 65.5146 43.4704 67.3476V76.3038C43.4704 77.4915 42.9678 78.6306 42.0733 79.4704C41.1787 80.3102 39.9654 80.782 38.7003 80.782C37.7775 80.7763 36.8762 80.5195 36.1058 80.0426C35.3353 79.5657 34.7287 78.8892 34.3596 78.0951C35.1594 77.6545 35.9246 77.1606 36.6492 76.6173C37.1316 76.2409 37.5302 75.7791 37.8224 75.2581C38.1146 74.7371 38.2946 74.1671 38.3522 73.5808C38.4098 72.9945 38.3438 72.4032 38.158 71.8409C37.9722 71.2785 37.6702 70.756 37.2693 70.3031C36.8684 69.8503 36.3764 69.4761 35.8215 69.2017C35.2665 68.9274 34.6594 68.7584 34.0349 68.7043C33.4103 68.6503 32.7806 68.7122 32.1815 68.8867C31.5825 69.0611 31.0259 69.3446 30.5436 69.721C28.8212 71.0822 26.6416 71.8278 24.3902 71.8257C21.86 71.8257 19.4335 70.8821 17.6443 69.2025C15.8552 67.5228 14.8501 65.2448 14.8501 62.8694C14.8729 61.1838 15.402 59.5385 16.3765 58.1226C17.447 58.3029 18.5326 58.3928 19.6202 58.3913C20.8853 58.3913 22.0985 57.9195 22.9931 57.0797C23.8877 56.2399 24.3902 55.1008 24.3902 53.9132C24.3902 52.7255 23.8877 51.5864 22.9931 50.7466C22.0985 49.9068 20.8853 49.435 19.6202 49.435C18.4934 49.4411 17.376 49.2435 16.3288 48.8529C14.6133 48.272 13.111 47.2416 12 45.8839C10.889 44.5261 10.2158 42.8978 10.0602 41.192C9.90457 39.4861 10.2731 37.774 11.122 36.2587C11.9709 34.7434 13.2647 33.4883 14.8501 32.642C15.5279 33.2275 16.2625 33.7522 17.0443 34.2094C18.145 34.8032 19.4518 34.9622 20.6773 34.6515C21.9029 34.3408 22.9468 33.5857 23.5793 32.5524C24.2118 31.5192 24.3813 30.2923 24.0503 29.1418C23.7193 27.9912 22.915 27.0112 21.8144 26.4174C21.1429 26.0696 20.5829 25.5594 20.1926 24.9396C19.7516 24.2206 19.5521 23.3934 19.6202 22.5662C19.6202 21.3785 20.1227 20.2395 21.0173 19.3997C21.9118 18.5599 23.1251 18.0881 24.3902 18.0881C24.7225 18.0445 25.0596 18.0445 25.3919 18.0881C25.6444 18.8076 25.9472 19.5107 26.2982 20.1928C26.6099 20.7059 27.0265 21.1561 27.5243 21.5174C28.022 21.8787 28.591 22.144 29.1984 22.298C29.8058 22.4521 30.4397 22.4917 31.0635 22.4148C31.6873 22.3378 32.2888 22.1458 32.8332 21.8497C33.8907 21.2523 34.6605 20.2934 34.9807 19.1744C35.3009 18.0554 35.1467 16.8635 34.5504 15.849C34.1502 15.1621 33.9371 14.3929 33.9303 13.6099C33.9303 12.4222 34.4329 11.2832 35.3274 10.4434C36.222 9.60358 37.4352 9.13178 38.7003 9.13178C39.9654 9.13178 41.1787 9.60358 42.0733 10.4434C42.9678 11.2832 43.4704 12.4222 43.4704 13.6099V29.5073ZM80.152 48.8529C79.1049 49.2435 77.9874 49.4411 76.8607 49.435C75.5956 49.435 74.3823 49.9068 73.4878 50.7466C72.5932 51.5864 72.0907 52.7255 72.0907 53.9132C72.0907 55.1008 72.5932 56.2399 73.4878 57.0797C74.3823 57.9195 75.5956 58.3913 76.8607 58.3913C77.9483 58.3928 79.0338 58.3029 80.1043 58.1226C81.0788 59.5385 81.6079 61.1838 81.6307 62.8694C81.6307 65.2448 80.6256 67.5228 78.8365 69.2025C77.0474 70.8821 74.6208 71.8257 72.0907 71.8257C69.8392 71.8278 67.6596 71.0822 65.9373 69.721C64.9632 68.9609 63.7073 68.5952 62.446 68.7043C61.1847 68.8135 60.0212 69.3886 59.2115 70.3031C58.4019 71.2176 58.0123 72.3967 58.1286 73.5808C58.2449 74.7649 58.8575 75.8572 59.8316 76.6173C60.5563 77.1606 61.3214 77.6545 62.1213 78.0951C61.7521 78.8892 61.1456 79.5657 60.3751 80.0426C59.6046 80.5195 58.7034 80.7763 57.7805 80.782C56.5154 80.782 55.3021 80.3102 54.4076 79.4704C53.513 78.6306 53.0105 77.4915 53.0105 76.3038V67.3476C53.0211 65.5146 53.6305 63.7288 54.7565 62.2313C55.8824 60.7338 57.4707 59.5966 59.3069 58.9734C60.5088 58.5934 61.5006 57.7807 62.0641 56.7141C62.6277 55.6476 62.7169 54.4145 62.3121 53.2862C61.9072 52.1579 61.0416 51.2268 59.9055 50.6977C58.7694 50.1687 57.4559 50.0849 56.2541 50.465C55.134 50.861 54.0494 51.3401 53.0105 51.898V44.9569C53.0211 43.1239 53.6305 41.3381 54.7565 39.8406C55.8824 38.3431 57.4707 37.206 59.3069 36.5828C60.5088 36.2027 61.5006 35.39 62.0641 34.3234C62.6277 33.2569 62.7169 32.0238 62.3121 30.8955C61.9072 29.7672 61.0416 28.8361 59.9055 28.3071C58.7694 27.778 57.4559 27.6942 56.2541 28.0743C55.134 28.4703 54.0494 28.9495 53.0105 29.5073V13.6099C53.0105 12.4222 53.513 11.2832 54.4076 10.4434C55.3021 9.60358 56.5154 9.13178 57.7805 9.13178C59.0456 9.13178 60.2589 9.60358 61.1534 10.4434C62.048 11.2832 62.5506 12.4222 62.5506 13.6099C62.5437 14.3929 62.3307 15.1621 61.9305 15.849C61.6131 16.3574 61.4057 16.9197 61.3203 17.5035C61.2349 18.0873 61.273 18.6812 61.4325 19.2512C61.5921 19.8211 61.8698 20.3559 62.25 20.8249C62.6301 21.2938 63.1051 21.6877 63.6477 21.984C64.1921 22.2801 64.7935 22.4722 65.4174 22.5491C66.0412 22.6261 66.675 22.5864 67.2825 22.4324C67.8899 22.2784 68.4588 22.0131 68.9566 21.6518C69.4543 21.2905 69.871 20.8403 70.1826 20.3271C70.5397 19.6014 70.8425 18.8532 71.0889 18.0881C71.4212 18.0445 71.7584 18.0445 72.0907 18.0881C73.3557 18.0881 74.569 18.5599 75.4636 19.3997C76.3581 20.2395 76.8607 21.3785 76.8607 22.5662C76.8534 23.4441 76.5714 24.3005 76.0498 25.0292C75.6597 25.6103 75.1178 26.0881 74.4757 26.4174C73.375 27.0112 72.5708 27.9912 72.2398 29.1418C71.9088 30.2923 72.0782 31.5192 72.7108 32.5524C73.3433 33.5857 74.3872 34.3408 75.6127 34.6515C76.8383 34.9622 78.1451 34.8032 79.2457 34.2094C80.1021 33.7745 80.9024 33.2486 81.6307 32.642C83.2215 33.4733 84.5257 34.7146 85.3894 36.2193C86.253 37.724 86.6399 39.4293 86.5045 41.1338C86.3691 42.8383 85.717 44.4708 84.6251 45.8386C83.5333 47.2064 82.0474 48.2523 80.3428 48.8529H80.152Z" fill="#7B4DFC"/>
</svg>
