<svg width="43" height="65" viewBox="0 0 43 65" fill="none" xmlns="http://www.w3.org/2000/svg">
<path d="M11.0083 64.1276C16.8892 64.1276 21.6565 59.3603 21.6565 53.4794V42.8312H11.0083C5.12747 42.8312 0.360107 47.5986 0.360107 53.4794C0.360107 59.3603 5.12747 64.1276 11.0083 64.1276Z" fill="#0ACF83"/>
<path d="M0.360107 32.183C0.360107 26.3022 5.12747 21.5348 11.0083 21.5348H21.6565V42.8312H11.0083C5.12747 42.8312 0.360107 38.0639 0.360107 32.183Z" fill="#A259FF"/>
<path d="M0.360107 10.8866C0.360107 5.00578 5.12747 0.238419 11.0083 0.238419H21.6565V21.5348H11.0083C5.12747 21.5348 0.360107 16.7675 0.360107 10.8866Z" fill="#F24E1E"/>
<path d="M21.6565 0.238419H32.3047C38.1855 0.238419 42.9529 5.00578 42.9529 10.8866C42.9529 16.7675 38.1855 21.5348 32.3047 21.5348H21.6565V0.238419Z" fill="#FF7262"/>
<path d="M42.9529 32.183C42.9529 38.0639 38.1855 42.8312 32.3047 42.8312C26.4239 42.8312 21.6565 38.0639 21.6565 32.183C21.6565 26.3022 26.4239 21.5348 32.3047 21.5348C38.1855 21.5348 42.9529 26.3022 42.9529 32.183Z" fill="#1ABCFE"/>
</svg>
