<svg width="52" height="69" viewBox="0 0 52 69" fill="none" xmlns="http://www.w3.org/2000/svg">
<path d="M0.057373 55.5893L0.487677 55.0122L20.7879 17.9659L20.831 17.5739L11.8832 1.40536C11.7193 1.1097 11.463 0.871064 11.1505 0.723227C10.838 0.575391 10.485 0.525835 10.1416 0.58157C9.79818 0.637305 9.48166 0.79551 9.23684 1.0338C8.99202 1.27209 8.83128 1.57841 8.77737 1.90941L0.057373 55.5893Z" fill="#FFC24A"/>
<path d="M0.310913 55.1513L0.634907 54.5425L20.7251 17.881L11.8 1.64913C11.6529 1.36685 11.4146 1.13804 11.1209 0.996988C10.8271 0.855934 10.4938 0.81023 10.1708 0.866723C9.84786 0.923215 9.5526 1.07886 9.32929 1.31035C9.10599 1.54183 8.96667 1.83669 8.93219 2.15075L0.310913 55.1513Z" fill="#FFA712"/>
<path d="M27.3545 29.8029L34.0166 23.2283L27.3519 11.0021C27.2053 10.739 26.9871 10.519 26.7208 10.3657C26.4545 10.2124 26.1499 10.1314 25.8395 10.1314C25.5292 10.1314 25.2246 10.2124 24.9583 10.3657C24.692 10.519 24.4738 10.739 24.3272 11.0021L20.7657 17.5328V18.0904L27.3545 29.8029Z" fill="#F4BD62"/>
<path d="M27.2352 29.5346L33.7126 23.1549L27.2352 11.272C27.1292 11.0148 26.9481 10.7926 26.7138 10.6321C26.4794 10.4717 26.2019 10.3799 25.9145 10.3678C25.6272 10.3557 25.3423 10.4238 25.0943 10.5639C24.8463 10.7041 24.6457 10.9102 24.5167 11.1575L20.9376 17.8027L20.8313 18.1412L27.2352 29.5346Z" fill="#FFA50E"/>
<path d="M0.0622559 55.5924L0.257159 55.4025L0.963364 55.1274L26.9335 30.2366L27.2626 29.3746L20.7852 17.4966L0.0622559 55.5924Z" fill="#F6820C"/>
<path d="M28.184 68.144L51.6938 55.5331L44.976 15.7669C44.9278 15.4865 44.8003 15.2244 44.6074 15.0092C44.4146 14.794 44.1638 14.6341 43.8826 14.5471C43.6015 14.46 43.3008 14.4492 43.0137 14.5157C42.7266 14.5823 42.464 14.7237 42.255 14.9243L0.057251 55.5891L23.4279 68.1416C24.1544 68.5316 24.9726 68.7364 25.8047 68.7364C26.6367 68.7364 27.4549 68.5316 28.1815 68.1416" fill="#FDE068"/>
<path d="M51.4792 55.4287L44.8171 15.962C44.8053 15.6939 44.7111 15.4351 44.5464 15.2185C44.3818 15.0019 44.154 14.8371 43.8919 14.7451C43.6299 14.6531 43.3453 14.6379 43.0743 14.7015C42.8033 14.7651 42.558 14.9046 42.3694 15.1024L0.310913 55.514L23.4233 67.9325C24.1441 68.3194 24.9558 68.5224 25.7812 68.5224C26.6065 68.5224 27.4182 68.3194 28.139 67.9325L51.4792 55.4287Z" fill="#FCCA3F"/>
<path d="M28.184 67.7649C27.4574 68.1549 26.6392 68.3597 25.8072 68.3597C24.9752 68.3597 24.157 68.1549 23.4304 67.7649L0.249622 55.3999L0.057251 55.5898L23.4279 68.1423C24.1544 68.5323 24.9726 68.7371 25.8047 68.7371C26.6367 68.7371 27.4549 68.5323 28.1815 68.1423L51.6938 55.5338L51.6356 55.1929L28.184 67.7649Z" fill="#EEAB37"/>
</svg>
