<svg width="87" height="60" viewBox="0 0 87 60" fill="none" xmlns="http://www.w3.org/2000/svg">
<path d="M53.5432 41.6921C54.6506 43.8516 56.3688 45.6667 58.5004 46.9289C60.632 48.1911 63.0905 48.8491 65.5934 48.8274C70.6548 48.8274 73.8887 46.3929 73.8887 43.0313C73.8887 39.0035 70.5656 37.5751 64.9973 35.2298L61.942 33.9696C53.1291 30.3573 47.2718 25.8316 47.2718 16.2652C47.2718 7.4508 54.2535 0.744693 65.1615 0.744693C68.7018 0.497569 72.2393 1.25989 75.3317 2.93634C78.4241 4.61279 80.9341 7.12898 82.548 10.1703L73.0356 16.0455C72.4128 14.5384 71.3279 13.2493 69.9253 12.3495C68.5227 11.4498 66.8686 10.9819 65.183 11.0082C64.4482 10.937 63.7061 11.014 63.004 11.2341C62.3019 11.4542 61.6552 11.8127 61.1051 12.2867C60.555 12.7606 60.1136 13.3396 59.809 13.9868C59.5045 14.634 59.3435 15.3351 59.3363 16.0455C59.3363 19.5719 61.6064 20.9969 66.832 23.1808L69.8874 24.4375C80.2672 28.7194 86.1245 33.0837 86.1245 42.8974C86.1245 53.4767 77.4866 59.2729 65.8826 59.2729C61.3625 59.5495 56.8559 58.5619 52.9063 56.4294C48.9567 54.2969 45.7329 51.1106 43.6239 47.2548L53.5432 41.6921ZM10.3965 42.7222C12.3168 45.998 14.0622 48.7656 18.2491 48.7656C22.2611 48.7656 24.7954 47.2548 24.7954 41.3831V1.43144H37.0098V41.5479C37.0098 53.7137 29.5926 59.2523 18.7702 59.2523C14.9474 59.4514 11.1514 58.5325 7.88181 56.6166C4.61218 54.7007 2.02204 51.8775 0.452148 48.5184L10.3965 42.7222Z" fill="#FBC02D"/>
</svg>
