<svg width="59" height="67" viewBox="0 0 59 67" fill="none" xmlns="http://www.w3.org/2000/svg">
<path d="M29.6095 66.7253C28.7276 66.7253 27.8518 66.4927 27.0787 66.0452L19.0231 61.2506C17.8199 60.5741 18.407 60.3349 18.8039 60.197C20.4081 59.6323 20.7337 59.5048 22.446 58.5272C22.626 58.424 22.8615 58.4604 23.0458 58.5697L29.2344 62.2616C29.4579 62.3831 29.775 62.3831 29.9821 62.2616L54.112 48.2591C54.3355 48.1316 54.4804 47.8705 54.4804 47.6033V19.6104C54.4804 19.3311 54.3355 19.0821 54.1072 18.9424L29.987 4.95206C29.7635 4.81847 29.4675 4.81847 29.244 4.95206L5.12867 18.9424C4.89492 19.076 4.74634 19.3371 4.74634 19.6043V47.5972C4.74634 47.8644 4.89129 48.1194 5.12081 48.2469L11.7286 52.0846C15.3164 53.888 17.5089 51.7627 17.5089 49.6253V21.9968C17.5089 21.6021 17.8169 21.2985 18.2095 21.2985H21.2658C21.6463 21.2985 21.9604 21.6021 21.9604 21.9968V49.6375C21.9604 54.4467 19.3511 57.2095 14.815 57.2095C13.4198 57.2095 12.3205 57.2095 9.25218 55.6915L2.92225 52.0239C1.35788 51.113 0.391479 49.4128 0.391479 47.5972V19.6043C0.391479 17.7826 1.35788 16.0824 2.92225 15.1837L27.0763 1.17514C28.6044 0.306814 30.6338 0.306814 32.1499 1.17514L56.2737 15.1898C57.832 16.0946 58.8045 17.7887 58.8045 19.6104V47.6033C58.8045 49.4189 57.832 51.113 56.2737 52.0239L32.1499 66.0325C31.3768 66.4818 30.501 66.7125 29.607 66.7125" fill="#689F63"/>
<path d="M37.2803 47.2264C26.9055 47.2264 24.7302 42.4642 24.7302 38.47C24.7302 38.0902 25.0365 37.7875 25.4169 37.7875H28.4795C28.8178 37.7875 29.1027 38.0338 29.1562 38.3679C29.6191 41.4885 30.9961 43.0624 37.2697 43.0624C42.2672 43.0624 44.392 41.9336 44.392 39.2837C44.392 37.7584 43.7866 36.6248 36.0233 35.8651C29.5301 35.2242 25.5178 33.7939 25.5178 28.6008C25.5178 23.8172 29.5538 20.9684 36.3141 20.9684C43.9053 20.9684 47.6683 23.6036 48.1431 29.2655C48.1609 29.4613 48.0897 29.6513 47.9591 29.7937C47.8285 29.9302 47.6445 30.0133 47.4546 30.0133H44.3742C44.0537 30.0133 43.7747 29.7878 43.7094 29.4791C42.9675 26.1971 41.1751 25.1466 36.3022 25.1466C30.8477 25.1466 30.2126 27.0458 30.2126 28.4702C30.2126 30.1973 30.9605 30.7017 38.3202 31.6751C45.6087 32.6425 49.069 34.0075 49.069 39.1294C49.069 44.2928 44.76 47.2543 37.2459 47.2543L37.2803 47.2264Z" fill="#689F63"/>
</svg>
