<svg width="52" height="52" viewBox="0 0 52 52" fill="none" xmlns="http://www.w3.org/2000/svg">
<path d="M16.8796 47.0862V30.6L26.1185 14.5L35.3573 30.6V47.0862" stroke="white" stroke-width="5" stroke-linecap="round" stroke-linejoin="round"/>
<path d="M16.8796 30.6002C16.8796 30.6002 19.4821 32.9002 21.4991 32.9002C23.5159 32.9002 26.1185 30.6002 26.1185 30.6002C26.1185 30.6002 28.721 32.9002 30.7379 32.9002C32.7547 32.9002 35.3573 30.6002 35.3573 30.6002" stroke="white" stroke-width="5" stroke-linecap="round" stroke-linejoin="round"/>
<path d="M26.1183 3C13.3621 3 3.02124 13.2974 3.02124 26C3.02124 38.7024 13.3621 49 26.1183 49C38.8743 49 49.2153 38.7024 49.2153 26C49.2153 13.2974 38.8743 3 26.1183 3Z" stroke="#7B4DFC" stroke-width="5" stroke-linecap="round" stroke-linejoin="round"/>
</svg>
