<svg width="154" height="55" viewBox="0 0 154 55" fill="none" xmlns="http://www.w3.org/2000/svg">
<path d="M11.256 39.664L0.792 28.912L11.256 18.16H19.704L9.24 28.912L19.704 39.664H11.256ZM35.0633 10.48V46H28.3433V10.48H35.0633ZM66.8066 19.408V46H60.0386V42.64C59.1746 43.792 58.0386 44.704 56.6306 45.376C55.2546 46.016 53.7506 46.336 52.1186 46.336C50.0386 46.336 48.1986 45.904 46.5986 45.04C44.9986 44.144 43.7346 42.848 42.8066 41.152C41.9106 39.424 41.4626 37.376 41.4626 35.008V19.408H48.1826V34.048C48.1826 36.16 48.7106 37.792 49.7666 38.944C50.8226 40.064 52.2626 40.624 54.0866 40.624C55.9426 40.624 57.3986 40.064 58.4546 38.944C59.5106 37.792 60.0386 36.16 60.0386 34.048V19.408H66.8066ZM76.845 16.24C75.661 16.24 74.669 15.872 73.869 15.136C73.101 14.368 72.717 13.424 72.717 12.304C72.717 11.184 73.101 10.256 73.869 9.52C74.669 8.752 75.661 8.368 76.845 8.368C78.029 8.368 79.005 8.752 79.773 9.52C80.573 10.256 80.973 11.184 80.973 12.304C80.973 13.424 80.573 14.368 79.773 15.136C79.005 15.872 78.029 16.24 76.845 16.24ZM80.157 19.408V46H73.437V19.408H80.157ZM92.9404 40.48H104.796V46H85.3084V40.576L96.9244 24.928H85.3564V19.408H104.652V24.832L92.9404 40.48ZM128 0.543999L115.04 54.688H108.464L121.424 0.543999H128ZM134.303 18.16H142.799L153.263 28.912L142.799 39.664H134.303L144.815 28.912L134.303 18.16Z" fill="#643ADA"/>
</svg>
