<svg width="69" height="59" viewBox="0 0 69 59" fill="none" xmlns="http://www.w3.org/2000/svg">
<g clip-path="url(#clip0_14_2073)">
<path d="M34.5 35.4105C37.8965 35.4105 40.65 32.7643 40.65 29.5C40.65 26.2357 37.8965 23.5895 34.5 23.5895C31.1034 23.5895 28.35 26.2357 28.35 29.5C28.35 32.7643 31.1034 35.4105 34.5 35.4105Z" fill="#61DAFB"/>
<path fill-rule="evenodd" clip-rule="evenodd" d="M5.05654 25.812C3.56436 27.1066 2.9375 28.3552 2.9375 29.5C2.9375 30.6449 3.56436 31.8935 5.05654 33.188C6.54857 34.4825 8.78828 35.7115 11.6782 36.772C17.4483 38.8893 25.5166 40.2279 34.5 40.2279C43.4834 40.2279 51.5517 38.8893 57.3218 36.772C60.2117 35.7115 62.4514 34.4825 63.9435 33.188C65.4356 31.8935 66.0625 30.6449 66.0625 29.5C66.0625 28.3552 65.4356 27.1066 63.9435 25.812C62.4514 24.5176 60.2117 23.2885 57.3218 22.228C51.5517 20.1107 43.4834 18.7722 34.5 18.7722C25.5166 18.7722 17.4483 20.1107 11.6782 22.228C8.78828 23.2885 6.54857 24.5176 5.05654 25.812ZM10.6527 19.6467C16.8263 17.3813 25.258 16.0091 34.5 16.0091C43.742 16.0091 52.1737 17.3813 58.3473 19.6467C61.4292 20.7776 64.0222 22.1579 65.8699 23.761C67.7175 25.3639 68.9375 27.3009 68.9375 29.5C68.9375 31.6991 67.7175 33.6361 65.8699 35.239C64.0222 36.8421 61.4292 38.2224 58.3473 39.3533C52.1737 41.6187 43.742 42.9909 34.5 42.9909C25.258 42.9909 16.8263 41.6187 10.6527 39.3533C7.57085 38.2224 4.97782 36.8421 3.13006 35.239C1.28246 33.6361 0.0625 31.6991 0.0625 29.5C0.0625 27.3009 1.28246 25.3639 3.13006 23.761C4.97782 22.1579 7.57085 20.7776 10.6527 19.6467Z" fill="#61DAFB"/>
<path fill-rule="evenodd" clip-rule="evenodd" d="M23.1016 3.1501C21.189 2.55544 19.7504 2.658 18.7188 3.23043C17.6871 3.80285 16.8754 4.94889 16.455 6.83812C16.0346 8.72716 16.0469 11.2058 16.5363 14.1414C17.5133 20.0024 20.3413 27.387 24.833 34.8639C29.3247 42.3409 34.5651 48.3869 39.358 52.1306C41.7586 54.0057 43.986 55.2553 45.8984 55.8499C47.8111 56.4446 49.2496 56.342 50.2813 55.7696C51.3129 55.1972 52.1246 54.0511 52.5451 52.1619C52.9655 50.2729 52.9532 47.7942 52.4638 44.8587C51.4867 38.9976 48.6588 31.613 44.167 24.1361C39.6753 16.6591 34.435 10.6131 29.642 6.86938C27.2414 4.9943 25.0141 3.7447 23.1016 3.1501ZM31.4553 4.72519C36.5835 8.73081 42.0359 15.0624 46.6569 22.7546C51.2778 30.4467 54.2572 38.1505 55.3026 44.4216C55.8244 47.5521 55.8771 50.4004 55.3565 52.7398C54.8359 55.079 53.7004 57.0629 51.7188 58.1625C49.7372 59.262 47.3817 59.2151 45.0135 58.4788C42.6451 57.7425 40.1048 56.2744 37.5448 54.2748C32.4165 50.2692 26.9642 43.9376 22.3432 36.2455C17.7222 28.5533 14.7429 20.8495 13.6975 14.5785C13.1756 11.448 13.1229 8.59962 13.6436 6.2602C14.1642 3.92097 15.2997 1.93708 17.2813 0.837552C19.2629 -0.261979 21.6183 -0.215111 23.9866 0.521194C26.355 1.25756 28.8953 2.72559 31.4553 4.72519Z" fill="#61DAFB"/>
<path fill-rule="evenodd" clip-rule="evenodd" d="M52.5451 6.83813C52.1246 4.9489 51.3129 3.80286 50.2813 3.23043C49.2496 2.65801 47.8111 2.55544 45.8984 3.1501C43.986 3.74471 41.7586 4.9943 39.358 6.86939C34.5651 10.6131 29.3247 16.6591 24.833 24.1361C20.3413 31.613 17.5134 38.9976 16.5363 44.8587C16.0469 47.7942 16.0346 50.2729 16.455 52.1619C16.8754 54.0511 17.6871 55.1972 18.7188 55.7696C19.7504 56.342 21.189 56.4446 23.1016 55.8499C25.0141 55.2553 27.2414 54.0057 29.642 52.1306C34.435 48.3869 39.6753 42.3409 44.167 34.8639C48.6588 27.387 51.4867 20.0024 52.4638 14.1414C52.9532 11.2058 52.9655 8.72716 52.5451 6.83813ZM55.3026 14.5785C54.2572 20.8495 51.2778 28.5533 46.6569 36.2455C42.0359 43.9376 36.5835 50.2692 31.4553 54.2748C28.8953 56.2744 26.355 57.7425 23.9866 58.4788C21.6183 59.2151 19.2629 59.262 17.2813 58.1625C15.2997 57.0629 14.1642 55.079 13.6436 52.7398C13.1229 50.4004 13.1756 47.5521 13.6975 44.4216C14.7429 38.1505 17.7222 30.4467 22.3432 22.7546C26.9642 15.0624 32.4166 8.73082 37.5448 4.7252C40.1048 2.72559 42.6451 1.25756 45.0135 0.521198C47.3817 -0.215106 49.7372 -0.261974 51.7188 0.837557C53.7004 1.93709 54.8359 3.92098 55.3565 6.26021C55.8772 8.59963 55.8245 11.448 55.3026 14.5785Z" fill="#61DAFB"/>
</g>
<defs>
<clipPath id="clip0_14_2073">
<rect width="69" height="59" fill="white"/>
</clipPath>
</defs>
</svg>
