<svg width="137" height="63" viewBox="0 0 137 63" fill="none" xmlns="http://www.w3.org/2000/svg">
<path d="M88.1158 27.4027C90.2645 19.1342 95.6365 15 104.232 15C117.124 15 118.736 24.302 125.182 25.8523C129.48 26.8859 133.24 25.3356 136.463 21.2013C134.314 29.4698 128.942 33.604 120.347 33.604C107.455 33.604 105.843 24.302 99.3968 22.7517C95.0993 21.7181 91.3389 23.2685 88.1158 27.4027ZM72 46.0067C74.1488 37.7383 79.5207 33.604 88.1158 33.604C101.008 33.604 102.62 42.906 109.066 44.4564C113.364 45.4899 117.124 43.9396 120.347 39.8054C118.199 48.0738 112.827 52.2081 104.232 52.2081C91.3389 52.2081 89.7274 42.906 83.281 41.3557C78.9835 40.3221 75.2232 41.8725 72 46.0067Z" fill="#44A8B3"/>
<path d="M37.4474 61.8211C37.5441 61.6107 37.7881 61.4646 37.9654 61.2874C40.6702 58.5592 43.3981 55.8552 46.0661 53.0938C46.9009 52.352 47.5461 51.4345 47.951 50.4129C48.356 49.3914 48.5097 48.2936 48.4003 47.2054C48.3165 46.7394 48.2066 46.2781 48.0711 45.8235C47.3437 46.4879 46.6669 47.0925 45.9855 47.7014C44.9266 48.6493 43.8723 49.6015 42.8042 50.5382C42.1743 51.156 41.3645 51.5754 40.4817 51.7411C39.5988 51.9068 38.6845 51.8109 37.8595 51.4661C37.0244 51.171 36.2977 50.6463 35.7698 49.9574C35.2419 49.2684 34.9359 48.4455 34.8899 47.5907C34.8652 47.4808 34.8321 47.3727 34.791 47.2674C33.9784 47.9318 33.2003 48.543 32.4291 49.1719L16.4004 62.2374C16.2899 62.3282 16.1702 62.4412 16.0667 62.5298H37.4359L37.4037 62.5098C37.2886 62.4323 37.3485 62.0249 37.4474 61.8211Z" fill="#FFCEBF"/>
<path d="M15.0888 61.8213C15.2789 61.5831 15.5083 61.3767 15.7679 61.21L37.9498 43.1065C39.463 41.8708 40.9692 40.6285 42.4686 39.3795C42.6539 39.2552 42.799 39.0833 42.8876 38.8834C43.2462 37.38 43.297 35.8237 43.0372 34.3016C42.807 34.4566 42.6827 34.5231 42.5768 34.6316C40.7605 36.195 38.9535 37.7717 37.128 39.3263C36.5233 39.9118 35.7411 40.2978 34.894 40.4287C34.0469 40.5596 33.1785 40.4287 32.4135 40.0549C31.6332 39.7005 30.98 39.1307 30.5373 38.4181C30.0946 37.7055 29.8823 36.8823 29.9274 36.0533C29.9274 35.8651 29.9274 35.679 29.9274 35.3358C29.5936 35.5705 29.3496 35.7278 29.1217 35.9049C20.2437 42.7433 11.3673 49.5765 2.49241 56.4046C2.09187 56.7124 1.61305 57.3989 1.0882 56.7323C0.563351 56.0658 1.36214 55.7912 1.76498 55.4811C11.2261 48.1777 20.6919 40.8809 30.1622 33.5908C31.7045 32.4016 31.8058 31.9033 30.8022 30.0143L30.2036 30.5547C28.5623 32.0229 26.9026 33.4712 25.2866 34.9638C24.6237 35.5789 23.7935 36.001 22.8919 36.1816C21.9902 36.3621 21.0538 36.2936 20.1909 35.984C19.3279 35.6744 18.5736 35.1364 18.015 34.4319C17.4564 33.7275 17.1163 32.8854 17.034 32.003C16.7279 32.2244 16.4631 32.3861 16.2122 32.5743L2.17013 43.0445C1.92795 43.273 1.65175 43.4655 1.35063 43.6158C1.12336 43.6819 0.879315 43.6702 0.660034 43.5826V62.541H15.0612C15.0077 62.4271 14.9823 62.3029 14.9871 62.178C14.9919 62.0531 15.0267 61.931 15.0888 61.8213Z" fill="#FFCEBF"/>
<path d="M53.9909 1.63747C53.5995 2.87095 53.2197 4.10664 52.8767 5.3534C52.5599 6.23446 52.5968 7.19761 52.98 8.05388C53.3633 8.91015 54.0654 9.59773 54.9485 9.98172C57.6497 11.3476 60.6935 11.9612 63.7375 11.7533V1.84785C63.7036 1.63067 63.7162 1.40914 63.7743 1.19678C63.8388 1.07666 63.9201 0.965632 64.016 0.866821H53.9817C54.1359 1.03955 54.0829 1.34294 53.9909 1.63747Z" fill="#FF6196"/>
<path d="M33.8383 22.9167C33.7906 24.0223 33.3885 25.0867 32.6873 25.9638C30.1805 29.0769 27.3016 31.8954 24.1101 34.3612C23.5954 34.8196 22.9431 35.1093 22.2467 35.1888C21.5502 35.2684 20.8455 35.1337 20.2336 34.8041C19.6245 34.5538 19.1109 34.1282 18.7635 33.5857C18.416 33.0433 18.2516 32.4106 18.293 31.7747C18.3667 30.9937 18.7038 30.2572 19.2529 29.6776C22.8218 26.4039 26.6885 23.4446 30.8066 20.8351C31.0763 20.6316 31.4057 20.5149 31.7481 20.5014C32.0906 20.4878 32.4288 20.5782 32.7149 20.7598C33.091 20.9844 33.395 21.3049 33.5933 21.6856C33.7916 22.0663 33.8764 22.4924 33.8383 22.9167Z" fill="#FF87AF"/>
<path d="M31.0801 36.3385C31.0267 35.849 31.092 35.3543 31.2709 34.8932C31.4499 34.4321 31.7376 34.0172 32.1114 33.6811C35.6058 30.5806 39.3548 27.7568 43.322 25.2372C43.4417 25.1642 43.5522 25.0911 43.6834 25.0158C44.03 24.7751 44.4498 24.6521 44.877 24.6662C45.3041 24.6802 45.7143 24.8305 46.043 25.0933C46.361 25.3524 46.586 25.7014 46.686 26.0906C46.786 26.4798 46.7559 26.8895 46.6 27.2613C46.0981 28.8695 45.1718 30.3251 43.9113 31.4866C41.3677 33.9225 38.7273 36.2788 36.0846 38.6173C35.6844 39.0132 35.1587 39.2698 34.5903 39.3468C34.0219 39.4237 33.443 39.3167 32.9447 39.0424C32.4212 38.7807 31.9754 38.3953 31.6492 37.9223C31.323 37.4493 31.1272 36.9043 31.0801 36.3385Z" fill="#FF87AF"/>
<path d="M47.6917 37.8025C47.0472 38.4668 46.3842 39.1002 45.765 39.78C45.5788 40.0428 45.4243 40.3251 45.3046 40.6215C45.6453 40.719 46.0435 40.9759 46.3198 40.8851C47.7263 40.4311 49.0983 39.8863 50.6429 39.3128C50.3068 40.0568 50.0536 40.7433 49.6968 41.3723C48.2268 43.7487 46.386 45.8938 44.2388 47.7323C43.4223 48.4897 42.5744 49.2138 41.6951 49.9047C41.2294 50.2765 40.6694 50.5226 40.0724 50.6179C39.4755 50.7131 38.8629 50.6541 38.2974 50.4468C37.7319 50.2396 37.2337 49.8916 36.854 49.4384C36.4742 48.9851 36.2263 48.443 36.1358 47.8674C36.0989 47.5474 36.1283 47.2235 36.2224 46.9144C36.3164 46.6054 36.4732 46.3174 36.6837 46.067C39.8163 42.7945 43.3963 39.9465 47.3257 37.601C47.3735 37.5831 47.4241 37.5734 47.4754 37.5722L47.6917 37.8025Z" fill="#FF87AF"/>
<path d="M52.9713 28.982L56.91 12.1518L59.6724 12.7741L58.2475 16.9396C56.9169 20.815 55.5702 24.6903 54.2719 28.5701C54.0187 29.2876 53.6872 29.4205 52.9713 28.982Z" fill="#FF6196"/>
<path d="M48.5245 38.8809C48.9412 37.3507 49.3556 35.9356 49.7055 34.5051C50.0465 33.1177 50.6951 31.8177 51.6069 30.6939C52.1663 29.9875 52.7947 30.2687 53.437 30.4215C54.0309 30.561 54.1805 30.9796 54.2058 31.5288C54.2995 33.0475 53.8187 34.5475 52.8523 35.7518C51.7017 37.124 50.2145 38.1993 48.5245 38.8809Z" fill="#FF6196"/>
<path d="M64.9396 2.68047C64.974 2.18726 64.9609 1.69206 64.9005 1.20118C64.853 1.06406 64.7589 0.946292 64.6335 0.86679C64.5313 0.786855 64.4117 0.730088 64.2836 0.700702C64.2099 0.687415 64.1063 0.760493 64.0073 0.864575C63.9114 0.963385 63.8301 1.07441 63.7656 1.19454C63.7075 1.4069 63.695 1.62842 63.7288 1.8456V11.7489C60.6848 11.9567 57.641 11.3432 54.9398 9.97725C54.0567 9.59327 53.3547 8.90569 52.9714 8.04942C52.5881 7.19315 52.5512 6.23 52.868 5.34894C53.211 4.10218 53.5909 2.86649 53.9822 1.63301C54.0743 1.33848 54.1272 1.03509 53.9822 0.86236C53.9015 0.778273 53.7902 0.727483 53.6714 0.720632C53.5194 0.72221 53.3721 0.77203 53.2525 0.86236C53.0803 0.961416 52.9432 1.10803 52.8588 1.28312C52.3984 2.61182 51.9933 3.95381 51.6411 5.30908C51.5081 5.84315 51.4723 6.39534 51.5352 6.94117C51.6243 7.92878 52.0061 8.87106 52.6353 9.65614C53.2645 10.4412 54.1147 11.0361 55.0849 11.3702C55.5199 11.5451 55.7754 11.7179 55.6534 12.2693C55.4854 12.969 55.322 13.6688 55.1562 14.3708C54.0282 19.1276 52.9064 23.8865 51.7907 28.6477C51.7593 28.86 51.6622 29.0583 51.5122 29.2169C50.7768 29.7791 50.159 30.4705 49.6913 31.2542C49.0954 32.2885 48.6831 33.4111 48.4713 34.576C48.4306 34.9475 48.291 35.3027 48.066 35.6072C47.841 35.9117 47.5382 36.1553 47.1868 36.3143C46.2268 36.7816 45.3452 37.3862 44.2794 38.0151C44.3504 36.7821 44.3366 35.5459 44.2379 34.3146C44.1568 33.9359 44.174 33.5437 44.2881 33.1729C44.4021 32.8021 44.6094 32.4641 44.8917 32.1887C46.2957 30.8507 47.2964 29.1716 47.7876 27.3301C47.9343 26.9032 47.9745 26.4491 47.905 26.0045C47.8355 25.5599 47.6582 25.1373 47.3875 24.7708C47.1168 24.4043 46.7602 24.1042 46.3467 23.8948C45.9331 23.6854 45.4741 23.5726 45.0068 23.5654C44.2502 23.5573 43.5074 23.7604 42.8682 24.1501C40.6653 25.5806 38.5221 27.0998 36.3951 28.6367C35.1359 29.549 33.9504 30.5588 32.7303 31.5155C32.6777 31.4612 32.6321 31.4009 32.5945 31.3361C32.5712 31.1731 32.5255 31.0137 32.4587 30.8622C31.4389 29.3475 32.1456 28.2469 33.2529 27.1153C34.4064 25.952 35.0438 24.4024 35.03 22.7948C35.0658 21.9757 34.7991 21.1708 34.2773 20.5227C33.9993 20.1937 33.6567 19.9206 33.269 19.7189C32.7183 19.4289 32.0887 19.3079 31.4645 19.372C30.8403 19.4362 30.2515 19.6824 29.7769 20.0776L29.1346 20.5205C27.6683 21.5303 26.1835 22.5136 24.7724 23.5942C22.7121 25.171 20.7002 26.8141 18.7274 28.4971C17.8066 29.2789 17.1344 30.3463 16.1791 31.0726C11.1976 34.8572 6.16317 38.5731 1.14716 42.3134C0.974679 42.4124 0.816088 42.5322 0.67525 42.67C0.660751 42.6901 0.648411 42.7116 0.638418 42.7342C0.532527 42.9711 0.44275 43.3631 0.567057 43.507C0.597528 43.5383 0.634356 43.5632 0.67525 43.5801C0.894531 43.6677 1.13858 43.6794 1.36584 43.6133C1.66697 43.4631 1.94316 43.2705 2.18535 43.042L16.2274 32.5718C16.4783 32.3836 16.7431 32.2131 17.0492 32.0005C17.1316 32.8829 17.4716 33.725 18.0302 34.4294C18.5888 35.1339 19.3431 35.672 20.2061 35.9815C21.069 36.2911 22.0054 36.3596 22.9071 36.1791C23.8087 35.9986 24.639 35.5764 25.3018 34.9613C26.9132 33.4687 28.5776 32.0204 30.2189 30.5522L30.8174 30.0119C31.821 31.9008 31.7198 32.3991 30.1774 33.5883C20.6994 40.8843 11.2283 48.1819 1.76409 55.4809C1.36124 55.7909 0.564755 56.0721 1.0873 56.7321C1.60985 57.392 2.09097 56.7121 2.49151 56.4043C11.371 49.5822 20.2444 42.7512 29.1116 35.9113C29.3418 35.7341 29.5835 35.5769 29.9173 35.3422V36.0597C29.8722 36.8887 30.0845 37.7119 30.5272 38.4245C30.9699 39.1371 31.6231 39.7069 32.4034 40.0613C33.1684 40.4351 34.0368 40.566 34.8839 40.4351C35.731 40.3042 36.5132 39.9182 37.1179 39.3327C38.9434 37.7826 40.7504 36.2014 42.5667 34.638C42.6818 34.5383 42.8153 34.463 43.0271 34.308C43.2869 35.8301 43.2361 37.3864 42.8775 38.8898C42.7889 39.0897 42.6437 39.2616 42.4585 39.3858C40.9576 40.6334 39.4513 41.8757 37.9397 43.1129L15.767 61.2186C15.5074 61.3853 15.278 61.5917 15.0879 61.8298C15.0273 61.9384 14.9933 62.059 14.9885 62.1822C14.9837 62.3054 15.0083 62.428 15.0603 62.5407C15.1643 62.6157 15.2846 62.6671 15.4121 62.6913C15.5396 62.7154 15.6712 62.7117 15.797 62.6802C15.8962 62.6525 15.9876 62.6032 16.064 62.5363C16.1791 62.4477 16.2942 62.3347 16.3978 62.2439L32.4265 49.1784C33.1976 48.5495 33.9757 47.9294 34.7883 47.2739C34.8295 47.3792 34.8625 47.4873 34.8873 47.5972C34.9333 48.452 35.2392 49.2749 35.7671 49.9639C36.2951 50.6528 37.0217 51.1775 37.8568 51.4726C38.6818 51.8174 39.5961 51.9133 40.479 51.7476C41.3618 51.5819 42.1717 51.1625 42.8015 50.5447C43.8696 49.608 44.9239 48.6558 45.9828 47.708C46.6734 47.099 47.341 46.4878 48.0684 45.8301C48.204 46.2846 48.3138 46.7459 48.3976 47.2119C48.5034 48.2965 48.3479 49.39 47.943 50.4074C47.5382 51.4248 46.895 52.3387 46.0634 53.0781C43.3954 55.8418 40.6676 58.5457 37.9627 61.2718C37.7855 61.4489 37.5415 61.5951 37.4448 61.8055C37.3481 62.0159 37.2859 62.4277 37.401 62.5163L37.4333 62.5363C37.6746 62.6492 37.9461 62.6886 38.2113 62.6492C38.2857 62.6345 38.3519 62.5944 38.3978 62.5363C38.4623 62.472 38.5244 62.3923 38.5866 62.3325C40.778 60.1535 42.981 57.9855 45.1564 55.7909C46.0345 54.9351 46.86 54.0307 47.6287 53.0826C48.6312 52.015 49.2958 50.6943 49.5446 49.2757C49.7933 47.8571 49.6158 46.3997 49.0329 45.0749C48.9703 44.7795 49.0315 44.4723 49.2033 44.2201C49.3529 43.9721 49.5187 43.7307 49.689 43.4915C50.2341 42.8107 50.6881 42.0667 51.0403 41.277C51.7209 39.3389 52.7657 37.5374 54.1226 35.9622C54.7464 35.2014 55.1756 34.3102 55.3756 33.3604C55.5755 32.4107 55.5406 31.429 55.2736 30.4946C55.1793 30.1394 55.1793 29.767 55.2736 29.4117C56.4384 25.9416 57.6378 22.4825 58.8256 19.0213C59.3581 17.4711 59.8876 15.9254 60.4139 14.3841L60.9043 12.9513C61.9494 12.9513 62.9346 12.9314 63.9153 12.9513C64.7302 12.9735 64.9788 12.6059 64.9696 11.8441C64.9212 8.78807 64.9396 5.73427 64.9396 2.68047ZM24.1094 34.3611C23.5947 34.8195 22.9424 35.1092 22.246 35.1887C21.5495 35.2683 20.8448 35.1336 20.2329 34.804C19.6238 34.5537 19.1102 34.1281 18.7628 33.5856C18.4153 33.0432 18.2509 32.4105 18.2923 31.7746C18.366 30.9936 18.7031 30.2571 19.2522 29.6775C22.8211 26.4038 26.6878 23.4445 30.8059 20.835C31.0306 20.6821 31.2863 20.5765 31.5563 20.5249C31.7374 20.4928 31.9231 20.4928 32.1042 20.5249C32.3211 20.5656 32.528 20.6452 32.7142 20.7597C33.0906 20.9845 33.3949 21.3053 33.5932 21.6864C33.7915 22.0676 33.8761 22.4942 33.8376 22.9188C33.7899 24.0244 33.3878 25.0888 32.6866 25.966C30.1796 29.0782 27.3008 31.896 24.1094 34.3611ZM36.0797 38.6329C35.6795 39.0288 35.1538 39.2854 34.5854 39.3624C34.017 39.4394 33.4381 39.3323 32.9398 39.0581C32.4153 38.7958 31.9689 38.4093 31.6427 37.9351C31.3165 37.4608 31.1212 36.9145 31.0752 36.3476C31.0218 35.8581 31.0871 35.3633 31.266 34.9022C31.445 34.4411 31.7327 34.0262 32.1065 33.6901C35.6009 30.5896 39.3499 27.7658 43.3171 25.2463C43.4368 25.1732 43.5473 25.1001 43.6785 25.0248C44.0251 24.7841 44.4449 24.6611 44.8721 24.6752C45.2992 24.6892 45.7094 24.8395 46.0381 25.1023C46.3561 25.3614 46.5811 25.7104 46.6811 26.0996C46.7811 26.4888 46.751 26.8985 46.5952 27.2703C46.0933 28.8785 45.1669 30.3342 43.9064 31.4956C41.3674 33.936 38.727 36.2855 36.0843 38.6241L36.0797 38.6329ZM49.6867 41.3811C48.2188 43.7538 46.3812 45.8958 44.2379 47.7323C43.4215 48.4897 42.5736 49.2138 41.6942 49.9047C41.2286 50.2765 40.6686 50.5226 40.0716 50.6178C39.4746 50.7131 38.862 50.6541 38.2965 50.4468C37.731 50.2396 37.2329 49.8916 36.8531 49.4383C36.4733 48.9851 36.2255 48.443 36.135 47.8674C36.098 47.5474 36.1275 47.2235 36.2215 46.9144C36.3155 46.6054 36.4723 46.3174 36.6828 46.067C39.8154 42.7945 43.3955 39.9465 47.3249 37.601C47.3727 37.5831 47.4233 37.5734 47.4745 37.5722L47.7047 37.7936C47.0602 38.458 46.3972 39.0913 45.778 39.7712C45.5918 40.0339 45.4373 40.3163 45.3176 40.6127C45.6582 40.7101 46.0565 40.967 46.3327 40.8762C47.4446 40.5175 48.538 40.1011 49.7097 39.6582L50.6558 39.3039C50.3013 40.0568 50.0481 40.7433 49.6913 41.3723L49.6867 41.3811ZM52.8473 35.7673C51.9887 36.819 50.9124 37.6877 49.6867 38.3185C49.3077 38.5222 48.9186 38.7126 48.5196 38.8898C48.9294 37.3817 49.3391 35.9844 49.6867 34.5715L49.7005 34.5139C50.0415 33.1266 50.6901 31.8266 51.602 30.7028C52.1613 29.9964 52.7898 30.2776 53.432 30.4304C54.0259 30.5699 54.1756 30.9885 54.2009 31.5377C54.2953 33.0551 53.8162 34.5542 52.8519 35.7585L52.8473 35.7673ZM58.234 16.9441C56.9034 20.8195 55.5568 24.6948 54.2584 28.5746C54.0144 29.3032 53.6829 29.4361 52.967 28.9976L56.3809 14.3974L56.9057 12.1563L59.6681 12.7786C59.4793 13.3256 59.2975 13.8637 59.1133 14.3974L58.234 16.9441Z" fill="black"/>
</svg>
