<svg width="43" height="40" viewBox="0 0 43 40" fill="none" xmlns="http://www.w3.org/2000/svg">
<g clip-path="url(#clip0_18_46)">
<path d="M34.5458 31.9783C34.4599 31.7838 34.4119 31.5703 34.4119 31.3472C34.4119 31.1241 34.4599 30.9106 34.5458 30.7162C34.635 30.5217 34.762 30.3433 34.9199 30.1967L34.9302 30.1839C35.0194 30.101 35.1224 30.0214 35.2322 29.9608C35.2906 29.9257 35.3524 29.8939 35.421 29.8652V27.2454H32.5001C32.4108 27.8191 32.1156 28.3354 31.69 28.7338C31.158 29.2278 30.42 29.5337 29.6065 29.5337H27.8457V36.6793H33.0115C33.0389 36.6378 33.0664 36.5964 33.0973 36.555C33.1591 36.4721 33.2277 36.3956 33.3032 36.3255C33.4646 36.1757 33.6602 36.0514 33.8799 35.9685C34.0893 35.8889 34.3192 35.8442 34.5595 35.8442C34.7963 35.8442 35.0297 35.8889 35.2391 35.9685C35.4588 36.0514 35.651 36.1757 35.8157 36.3255C35.9771 36.4753 36.1109 36.6569 36.2002 36.8609C36.286 37.0553 36.334 37.2689 36.334 37.492C36.334 37.7119 36.286 37.9222 36.2002 38.123C36.1109 38.327 35.9771 38.5087 35.8157 38.6585C35.6544 38.8083 35.4588 38.9325 35.2391 39.0154C35.0297 39.0951 34.7998 39.1397 34.5595 39.1397C34.3261 39.1397 34.103 39.0983 33.8936 39.0186L33.8799 39.0154C33.6602 38.9325 33.468 38.8083 33.3032 38.6585C33.2037 38.566 33.1145 38.4577 33.0389 38.3461C32.9978 38.2824 32.96 38.2123 32.9291 38.1453H27.0563C26.8366 38.1453 26.641 38.0625 26.4968 37.9286C26.3492 37.7916 26.26 37.6099 26.26 37.4059V29.5337H22.4157V36.0163C22.474 36.045 22.5324 36.0737 22.5907 36.1088C22.6971 36.1693 22.7967 36.2458 22.8825 36.3255C23.0472 36.4785 23.1777 36.6569 23.2669 36.8609C23.3527 37.0553 23.4008 37.2689 23.4008 37.492C23.4008 37.7087 23.3562 37.9159 23.2704 38.1103L23.2669 38.123C23.1777 38.327 23.0438 38.5055 22.8825 38.6585C22.7212 38.8083 22.5255 38.9325 22.3059 39.0154C22.0965 39.0951 21.8665 39.1397 21.6262 39.1397C21.3894 39.1397 21.1594 39.0951 20.9466 39.0154C20.727 38.9325 20.5313 38.8083 20.37 38.6585C20.2087 38.5087 20.0748 38.327 19.9856 38.123C19.8997 37.9286 19.8517 37.7151 19.8517 37.492C19.8517 37.2752 19.8963 37.0681 19.9821 36.8737L19.9856 36.8609C20.0748 36.6569 20.2087 36.4785 20.37 36.3255C20.4558 36.2458 20.5485 36.1757 20.6514 36.1151L20.6652 36.1056C20.7201 36.0769 20.7784 36.0482 20.8368 36.0195V29.5337H15.7088V32.893C15.7088 33.0969 15.6196 33.2786 15.4754 33.4125C15.3312 33.5463 15.1356 33.6292 14.9159 33.6292H11.2776C11.2501 33.6802 11.2192 33.728 11.1849 33.779C11.1231 33.865 11.051 33.9479 10.9687 34.0244L10.9549 34.0371C10.7936 34.1869 10.598 34.3112 10.3783 34.3941C10.1689 34.4738 9.93894 34.5184 9.69868 34.5184C9.46527 34.5184 9.24217 34.477 9.03279 34.3973L9.01906 34.3941C8.79939 34.3112 8.60718 34.1869 8.44242 34.0371C8.2811 33.8873 8.14723 33.7057 8.05799 33.5017C7.97218 33.3073 7.92413 33.0937 7.92413 32.8706C7.92413 32.6507 7.97218 32.4372 8.05799 32.2396C8.14723 32.0356 8.2811 31.854 8.44242 31.7042C8.61061 31.5576 8.80969 31.4333 9.02936 31.3504C9.23874 31.2707 9.46871 31.2261 9.70897 31.2261C9.94924 31.2261 10.1792 31.2707 10.3886 31.3504C10.598 31.4333 10.7902 31.5512 10.9481 31.701L10.9618 31.7105C11.051 31.7934 11.1368 31.889 11.2021 31.991C11.2364 32.0452 11.2741 32.1026 11.305 32.1663H14.1265V29.4732C13.567 29.3584 13.0659 29.0971 12.678 28.737C12.1597 28.2557 11.8405 27.5992 11.8405 26.8789V25.1291H3.4174V29.9257C3.46202 29.9512 3.50664 29.9767 3.55126 30.0054C3.6405 30.0628 3.71945 30.1265 3.79839 30.1967C3.95972 30.3464 4.09358 30.5281 4.18282 30.7321C4.26863 30.9265 4.31669 31.14 4.31669 31.3631C4.31669 31.583 4.26863 31.7998 4.18282 31.9942C4.09358 32.1982 3.95972 32.3766 3.79839 32.5296C3.63707 32.6794 3.44143 32.8037 3.22175 32.8866C3.01238 32.9663 2.78241 33.0109 2.54214 33.0109C2.3053 33.0109 2.07877 32.9663 1.86253 32.8866C1.64285 32.8037 1.44721 32.6794 1.28588 32.5296C1.12456 32.3798 0.990698 32.1982 0.901456 31.9942C0.812214 31.7934 0.76416 31.5799 0.76416 31.3568C0.76416 31.14 0.808781 30.9329 0.894591 30.7385L0.898023 30.7257C0.987266 30.5217 1.12113 30.3433 1.28245 30.1903C1.38199 30.0979 1.49869 30.015 1.61883 29.9449C1.68404 29.9066 1.76299 29.8716 1.83507 29.8429V24.3929C1.83507 24.1889 1.92431 24.0073 2.06847 23.8734C2.21606 23.7364 2.41171 23.6535 2.63138 23.6535H11.8405V20.0839H4.13134C4.10045 20.1381 4.06955 20.1923 4.0318 20.2465C3.96658 20.3453 3.8842 20.4377 3.79839 20.5174C3.63364 20.6703 3.44143 20.7915 3.22175 20.8743C3.01238 20.954 2.78241 20.9986 2.54214 20.9986C2.30874 20.9986 2.08563 20.9572 1.87626 20.8775L1.86253 20.8743C1.64285 20.7915 1.45064 20.6672 1.28588 20.5174C1.12456 20.3676 0.990698 20.1859 0.901456 19.9819C0.815646 19.7875 0.767593 19.574 0.767593 19.3509C0.767593 19.131 0.815646 18.9174 0.901456 18.7198C0.990698 18.5159 1.12456 18.3342 1.28588 18.1844C1.44721 18.0346 1.64285 17.9103 1.86253 17.8274C2.07533 17.7446 2.30187 17.7 2.54557 17.7C2.77897 17.7 3.00208 17.7414 3.21146 17.8211L3.22519 17.8243C3.44486 17.9071 3.63707 18.0314 3.80183 18.1812C3.88764 18.2609 3.96315 18.3469 4.0318 18.4426L4.04209 18.4553C4.07299 18.5063 4.10388 18.5605 4.13477 18.6147H11.8405V14.1814C11.8405 14.073 11.8474 13.9646 11.8611 13.8563H7.49508C7.27541 13.8563 7.07976 13.7734 6.9356 13.6396C6.79144 13.5057 6.7022 13.324 6.7022 13.1201V9.74171C6.64728 9.71622 6.59579 9.68753 6.54088 9.65566C6.4482 9.59829 6.35896 9.53136 6.27658 9.45487L6.26285 9.44212C6.10153 9.29233 5.96767 9.11066 5.87842 8.90669C5.79261 8.71227 5.74456 8.49874 5.74456 8.27564C5.74456 8.05891 5.78918 7.85175 5.87499 7.65734L5.87842 7.64459C5.96767 7.44061 6.10153 7.26213 6.26285 7.10915C6.42417 6.95936 6.61982 6.83506 6.83949 6.75219C7.04887 6.67252 7.27884 6.6279 7.51911 6.6279C7.75594 6.6279 7.98591 6.67252 8.19872 6.75219C8.41839 6.83506 8.61404 6.95936 8.77536 7.10915C8.93325 7.26532 9.06712 7.45017 9.15636 7.65415C9.24217 7.84856 9.29022 8.0621 9.29022 8.2852C9.29022 8.5083 9.24217 8.72183 9.15636 8.91625C9.06712 9.11066 8.94012 9.28914 8.78223 9.43575L8.77193 9.4485C8.68269 9.53136 8.57972 9.61104 8.46645 9.6716C8.4081 9.70347 8.34631 9.73853 8.27767 9.76721V12.387H12.5853V12.4061C12.6128 12.3775 12.6437 12.3488 12.6711 12.3233C13.2031 11.8293 13.9411 11.5233 14.7546 11.5233H16.4056V2.95315H11.2467C11.2192 2.99458 11.1918 3.03601 11.1609 3.07744C11.0991 3.16031 11.0304 3.23361 10.9549 3.30692C10.7936 3.45671 10.598 3.58101 10.3783 3.66387C10.1689 3.74355 9.93894 3.78817 9.69868 3.78817C9.46184 3.78817 9.22844 3.74355 9.01906 3.66387C8.79939 3.58101 8.60718 3.45671 8.44242 3.30692C8.2811 3.15712 8.14723 2.97546 8.05799 2.77148C7.97218 2.57388 7.92413 2.36353 7.92413 2.13724C7.92413 1.91733 7.97218 1.70698 8.05799 1.50619C8.14723 1.30222 8.2811 1.12055 8.44242 0.970757C8.60374 0.820962 8.79939 0.696665 9.01906 0.6138C9.22844 0.534122 9.45841 0.489502 9.69868 0.489502C9.93208 0.489502 10.1552 0.530935 10.3646 0.610613L10.3783 0.6138C10.598 0.696665 10.7902 0.820962 10.9549 0.970757C11.0545 1.06318 11.1437 1.17155 11.2192 1.2831C11.2604 1.34365 11.2982 1.41695 11.3325 1.48388H17.1985C17.4181 1.48388 17.6138 1.56675 17.7579 1.70061C17.9055 1.83765 17.9948 2.01932 17.9948 2.2233V11.5233H21.839V3.61607C21.7807 3.58738 21.7223 3.5587 21.664 3.52364C21.5576 3.46309 21.458 3.38659 21.3722 3.30692C21.2075 3.15393 21.0771 2.97546 20.9878 2.77148C20.902 2.57707 20.8539 2.36353 20.8539 2.14043C20.8539 1.92371 20.8986 1.71654 20.9844 1.52213L20.9878 1.50938C21.0771 1.3054 21.2109 1.12693 21.3722 0.973944C21.5336 0.82415 21.7292 0.699852 21.9489 0.616987C22.1583 0.537309 22.3882 0.492689 22.6285 0.492689C22.8653 0.492689 23.0953 0.537309 23.3081 0.616987C23.5278 0.699852 23.7234 0.82415 23.8848 0.973944C24.0461 1.12374 24.1799 1.3054 24.2692 1.50938C24.355 1.70379 24.403 1.91733 24.403 2.14043C24.403 2.35715 24.3584 2.56432 24.2726 2.75873L24.2692 2.77148C24.1799 2.97546 24.0461 3.15393 23.8848 3.30692C23.7989 3.38659 23.7063 3.45671 23.6033 3.52045L23.5896 3.53001C23.5346 3.5587 23.4763 3.58738 23.4179 3.61607V11.5201H28.5425V6.73945C28.5425 6.53547 28.6317 6.3538 28.7759 6.21994C28.9201 6.08609 29.1157 6.00322 29.3354 6.00322H32.9772C33.0046 5.95223 33.0355 5.90442 33.0698 5.85343C33.1316 5.76737 33.2037 5.68451 33.2861 5.60802L33.2998 5.59527C33.4611 5.44547 33.6568 5.32118 33.8764 5.23831C34.0858 5.15863 34.3158 5.11401 34.5561 5.11401C34.7895 5.11401 35.0126 5.15545 35.2219 5.23512L35.2357 5.23831C35.4553 5.32118 35.6476 5.44547 35.8123 5.59527C35.9736 5.74506 36.1075 5.92673 36.1967 6.13071C36.2826 6.32512 36.3306 6.53866 36.3306 6.76176C36.3306 6.98167 36.2826 7.1952 36.1967 7.39281C36.1075 7.59678 35.9736 7.77845 35.8123 7.92824C35.6407 8.07485 35.445 8.19915 35.2254 8.28201C35.016 8.36169 34.786 8.40631 34.5458 8.40631C34.3055 8.40631 34.0755 8.36169 33.8661 8.28201C33.6568 8.19915 33.4646 8.08122 33.3067 7.93462L33.2929 7.92505C33.2037 7.84219 33.1179 7.74658 33.0527 7.64459C33.0149 7.59041 32.9806 7.53304 32.9497 7.4693H30.1283V11.5616C30.7358 11.6604 31.2781 11.9345 31.6934 12.3201C32.2117 12.8013 32.5309 13.4579 32.5309 14.1782V14.5065H40.2882V9.70984C40.2435 9.68435 40.1989 9.65885 40.1543 9.63016C40.065 9.5728 39.9861 9.50905 39.9106 9.43894C39.7493 9.28914 39.6154 9.10748 39.5262 8.9035C39.4403 8.70909 39.3923 8.49555 39.3923 8.27245C39.3923 8.05254 39.4403 7.83582 39.5262 7.6414C39.6154 7.43743 39.7493 7.25895 39.9106 7.10596C40.0719 6.95617 40.2676 6.83187 40.4872 6.74901C40.6966 6.66933 40.9266 6.62471 41.1668 6.62471C41.4037 6.62471 41.6336 6.66933 41.8465 6.74901C42.0661 6.83187 42.2618 6.95617 42.4231 7.10596C42.5844 7.25576 42.7183 7.43743 42.8075 7.6414C42.8933 7.83582 42.9414 8.04935 42.9414 8.27245C42.9414 8.48917 42.8968 8.69634 42.811 8.89075L42.8075 8.9035C42.7183 9.10748 42.5844 9.28595 42.4231 9.43894C42.3236 9.53136 42.2069 9.61423 42.0867 9.68435C42.0181 9.72259 41.9426 9.75765 41.8705 9.78952V15.2363C41.8705 15.4403 41.7812 15.622 41.6371 15.7558C41.4895 15.8929 41.2938 15.9757 41.0742 15.9757H32.5309V19.5453H39.5742C39.6051 19.4911 39.636 19.4369 39.6738 19.3828C39.7424 19.284 39.8213 19.1915 39.9072 19.1118C40.0719 18.9589 40.2641 18.8378 40.4838 18.7549C40.6932 18.6752 40.9231 18.6306 41.1634 18.6306C41.3968 18.6306 41.6199 18.672 41.8293 18.7517L41.843 18.7549C42.0627 18.8378 42.2549 18.9621 42.4197 19.1118C42.581 19.2616 42.7149 19.4433 42.8041 19.6473C42.8899 19.8417 42.938 20.0552 42.938 20.2783C42.938 20.4982 42.8899 20.7118 42.8041 20.9094C42.7149 21.1134 42.581 21.295 42.4197 21.4448C42.2583 21.5946 42.0627 21.7189 41.843 21.8018C41.6336 21.8815 41.4037 21.9261 41.1634 21.9261C40.93 21.9261 40.7069 21.8846 40.4975 21.805L40.4838 21.8018C40.2641 21.7189 40.0719 21.5946 39.9072 21.4448C39.8213 21.3651 39.7458 21.2791 39.6772 21.1835L39.6669 21.1707C39.636 21.1197 39.6051 21.0656 39.5742 21.0114H32.5309V25.7697H36.2105C36.4301 25.7697 36.6258 25.8526 36.77 25.9865C36.9141 26.1203 37.0034 26.302 37.0034 26.506V29.8875C37.0583 29.913 37.1098 29.9417 37.1647 29.9767C37.2574 30.0341 37.3466 30.101 37.429 30.1775L37.4427 30.1903C37.604 30.3401 37.7379 30.5217 37.8271 30.7257C37.9129 30.9201 37.961 31.1337 37.961 31.3568C37.961 31.5735 37.9164 31.7807 37.8306 31.9751L37.8271 31.9878C37.7379 32.1918 37.604 32.3703 37.4427 32.5233C37.2814 32.673 37.0857 32.7973 36.8661 32.8802C36.6567 32.9599 36.4267 33.0045 36.1864 33.0045C35.9496 33.0045 35.7196 32.9599 35.5068 32.8802C35.2872 32.7973 35.0915 32.673 34.9302 32.5233C34.7723 32.3671 34.635 32.1822 34.5458 31.9783ZM19.124 17.1071H25.2474C25.7245 17.1071 26.1124 17.4673 26.1124 17.9103V23.1467C26.1124 23.5898 25.7245 23.9499 25.2474 23.9499H19.124C18.6469 23.9499 18.2591 23.5898 18.2591 23.1467V17.9103C18.2591 17.4673 18.6469 17.1071 19.124 17.1071ZM29.61 12.9448H14.758C14.4182 12.9448 14.1059 13.0754 13.8793 13.289C13.6356 13.5153 13.4846 13.8308 13.4846 14.1814V26.8757C13.4846 27.2263 13.6356 27.5418 13.8793 27.7681C14.1093 27.9816 14.4182 28.1123 14.758 28.1123H29.61C29.9498 28.1123 30.2621 27.9816 30.4887 27.7681C30.7324 27.5418 30.8834 27.2263 30.8834 26.8757V14.1814C30.8834 13.8308 30.7324 13.5153 30.4887 13.289C30.2621 13.0754 29.9498 12.9448 29.61 12.9448Z" fill="white"/>
<rect x="17.8359" y="16.5165" width="9.03798" height="7.54213" rx="1" fill="#643ADA"/>
</g>
<defs>
<clipPath id="clip0_18_46">
<rect width="42.1772" height="38.6534" fill="white" transform="translate(0.76416 0.489502)"/>
</clipPath>
</defs>
</svg>
