<svg width="81" height="78" viewBox="0 0 81 78" fill="none" xmlns="http://www.w3.org/2000/svg">
<path d="M69.6125 15.6392L56.6736 9.64615C55.1759 8.95245 53.3861 9.24507 52.2107 10.3758L9.85363 47.5279C8.71433 48.5272 8.71564 50.2527 9.85646 51.2504L13.3163 54.2762C14.249 55.0919 15.6536 55.1519 16.6578 54.4191L67.6655 17.194C69.3768 15.9452 71.8346 17.1193 71.8346 19.1856V19.0411C71.8346 17.5907 70.9709 16.2685 69.6125 15.6392Z" fill="#0065A9"/>
<g filter="url(#filter0_d_14_2052)">
<path d="M69.6127 63.0054L56.6738 68.9985C55.1761 69.6923 53.3862 69.3996 52.2109 68.2689L9.85375 31.1168C8.71445 30.1175 8.71576 28.3919 9.85658 27.3942L13.3164 24.3684C14.2491 23.5527 15.6537 23.4927 16.6579 24.2255L67.6656 61.4506C69.3769 62.6995 71.8348 61.5254 71.8348 59.4591V59.6036C71.8348 61.054 70.9711 62.3762 69.6127 63.0054Z" fill="#007ACC"/>
</g>
<g filter="url(#filter1_d_14_2052)">
<path d="M56.6741 68.9993C55.176 69.6926 53.3862 69.3993 52.2107 68.2685C53.659 69.6618 56.1355 68.675 56.1355 66.7046V11.9394C56.1355 9.96897 53.659 8.98217 52.2107 10.3755C53.3862 9.24466 55.176 8.95163 56.6741 9.64471L69.6108 15.6296C70.9701 16.2585 71.8346 17.5811 71.8346 19.0322V59.612C71.8346 61.0631 70.9701 62.3858 69.6107 63.0146L56.6741 68.9993Z" fill="#1F9CF0"/>
</g>
<defs>
<filter id="filter0_d_14_2052" x="0.666782" y="15.3805" width="79.5013" height="62.3241" filterUnits="userSpaceOnUse" color-interpolation-filters="sRGB">
<feFlood flood-opacity="0" result="BackgroundImageFix"/>
<feColorMatrix in="SourceAlpha" type="matrix" values="0 0 0 0 0 0 0 0 0 0 0 0 0 0 0 0 0 0 127 0" result="hardAlpha"/>
<feOffset/>
<feGaussianBlur stdDeviation="4.16667"/>
<feColorMatrix type="matrix" values="0 0 0 0 0 0 0 0 0 0 0 0 0 0 0 0 0 0 0.25 0"/>
<feBlend mode="overlay" in2="BackgroundImageFix" result="effect1_dropShadow_14_2052"/>
<feBlend mode="normal" in="SourceGraphic" in2="effect1_dropShadow_14_2052" result="shape"/>
</filter>
<filter id="filter1_d_14_2052" x="43.8774" y="0.93932" width="36.2906" height="76.7655" filterUnits="userSpaceOnUse" color-interpolation-filters="sRGB">
<feFlood flood-opacity="0" result="BackgroundImageFix"/>
<feColorMatrix in="SourceAlpha" type="matrix" values="0 0 0 0 0 0 0 0 0 0 0 0 0 0 0 0 0 0 127 0" result="hardAlpha"/>
<feOffset/>
<feGaussianBlur stdDeviation="4.16667"/>
<feColorMatrix type="matrix" values="0 0 0 0 0 0 0 0 0 0 0 0 0 0 0 0 0 0 0.25 0"/>
<feBlend mode="overlay" in2="BackgroundImageFix" result="effect1_dropShadow_14_2052"/>
<feBlend mode="normal" in="SourceGraphic" in2="effect1_dropShadow_14_2052" result="shape"/>
</filter>
</defs>
</svg>
